<svg xmlns="http://www.w3.org/2000/svg" viewBox="0 0 15 15" width="15" height="15">
	<style>
		tspan { white-space:pre }
		.shp0 { fill: #ffffff } 
	</style>
	<g id="header">
		<path id="Shape 1" class="shp0" d="M13.25 10.14C15.57 7.82 15.57 4.04 13.25 1.73C10.93 -0.59 7.16 -0.59 4.84 1.73C2.9 3.66 2.58 6.61 3.88 8.88L0.45 12.31C-0.16 12.91 -0.16 13.9 0.45 14.5L0.47 14.52C1.08 15.13 2.06 15.13 2.67 14.52L6.09 11.09C8.36 12.39 11.31 12.07 13.25 10.14ZM6.22 8.75C4.67 7.2 4.67 4.67 6.22 3.11C7.78 1.56 10.31 1.56 11.86 3.11C13.42 4.67 13.42 7.2 11.86 8.75C10.31 10.31 7.78 10.31 6.22 8.75Z" />
	</g>
</svg>